<?xml version="1.0" encoding="UTF-8" standalone="no"?><svg xmlns="http://www.w3.org/2000/svg" xmlns:xlink="http://www.w3.org/1999/xlink" clip-rule="evenodd" stroke-miterlimit="4.00" viewBox="0 0 33 33"><desc>SVG generated by Keynote</desc><defs></defs><g transform="matrix(1.00, 0.00, -0.00, -1.00, 0.0, 33.0)"><path d="M 1.3 16.5 C 1.3 24.7 8.0 31.4 16.2 31.4 C 24.4 31.4 31.0 24.7 31.0 16.5 C 31.0 8.3 24.4 1.6 16.2 1.6 C 8.0 1.6 1.3 8.3 1.3 16.5 Z M 8.6 16.5 C 8.6 12.3 12.0 8.9 16.2 8.9 C 20.4 8.9 23.8 12.3 23.8 16.5 C 23.8 20.7 20.4 24.1 16.2 24.1 C 12.0 24.1 8.6 20.7 8.6 16.5 Z M 8.6 16.5 " fill="#EA5120"></path></g></svg>