<?xml version="1.0" encoding="UTF-8" standalone="no"?><svg xmlns="http://www.w3.org/2000/svg" xmlns:xlink="http://www.w3.org/1999/xlink" clip-rule="evenodd" stroke-miterlimit="4.00" viewBox="0 0 33 33"><desc>SVG generated by Keynote</desc><defs></defs><g transform="matrix(1.00, 0.00, -0.00, -1.00, 0.0, 33.0)"><path d="M 1.3 16.6 C 1.3 24.8 8.0 31.5 16.2 31.5 C 24.4 31.5 31.0 24.8 31.0 16.6 C 31.0 8.4 24.4 1.8 16.2 1.8 C 8.0 1.8 1.3 8.4 1.3 16.6 Z M 8.6 16.6 C 8.6 12.4 12.0 9.0 16.2 9.0 C 20.4 9.0 23.8 12.4 23.8 16.6 C 23.8 20.8 20.4 24.2 16.2 24.2 C 12.0 24.2 8.6 20.8 8.6 16.6 Z M 8.6 16.6 " fill="#EA5120"></path></g></svg>